<svg xmlns="http://www.w3.org/2000/svg" xmlns:xlink="http://www.w3.org/1999/xlink" viewBox="0 0 1410.39 337.07"><defs><style>.cls-1,.cls-2,.cls-3,.cls-4{fill:none;stroke-miterlimit:10;stroke-width:24px;}.cls-1{stroke:url(#linear-gradient);}.cls-2{stroke:url(#linear-gradient-2);}.cls-3{stroke:url(#linear-gradient-3);}.cls-4{stroke:url(#linear-gradient-4);}</style><linearGradient id="linear-gradient" y1="168.53" x2="221.22" y2="168.53" gradientUnits="userSpaceOnUse"><stop offset="0" stop-color="#6dccd8" stop-opacity="0.9"/><stop offset="1" stop-color="#6dccd8" stop-opacity="0.1"/></linearGradient><linearGradient id="linear-gradient-2" x1="304.02" y1="168.53" x2="597.03" y2="168.53" xlink:href="#linear-gradient"/><linearGradient id="linear-gradient-3" x1="682.05" y1="168.53" x2="973.49" y2="168.53" xlink:href="#linear-gradient"/><linearGradient id="linear-gradient-4" x1="1068.07" y1="168.53" x2="1410.39" y2="168.53" xlink:href="#linear-gradient"/></defs><title>Asset 7</title><g id="Layer_2" data-name="Layer 2"><g id="Layer_1-2" data-name="Layer 1"><path class="cls-1" d="M209.22,15.36V70H83.49v71.49h96.29v52.56H83.49v73H209.22V321.7H12V15.36Z"/><path class="cls-2" d="M539.52,242.44a14.26,14.26,0,0,1,5,.94,13.66,13.66,0,0,1,4.84,3.26l28.17,29.65a116.94,116.94,0,0,1-46.36,36.48q-27.86,12.28-65.91,12.3-34.91,0-62.55-11.88a135.41,135.41,0,0,1-46.89-32.8,144.61,144.61,0,0,1-29.54-49.62Q316,202.06,316,168.43q0-34.27,11.77-63A146.84,146.84,0,0,1,360.7,55.94a148.57,148.57,0,0,1,50.56-32.38Q440.71,12,476.23,12a165.64,165.64,0,0,1,32.48,3.05,157.91,157.91,0,0,1,28.49,8.41,133.85,133.85,0,0,1,24.39,12.82,117.77,117.77,0,0,1,19.77,16.51L557.39,85a30.9,30.9,0,0,1-5.47,5.36q-3.15,2.42-8.83,2.42a15.67,15.67,0,0,1-7.15-1.69,78.11,78.11,0,0,1-7.15-4.1c-2.52-1.6-5.29-3.36-8.3-5.25a64.93,64.93,0,0,0-10.72-5.26,90.06,90.06,0,0,0-14.51-4.1,99.14,99.14,0,0,0-19.45-1.68,89,89,0,0,0-35.32,6.83,77.47,77.47,0,0,0-27.44,19.56,90.61,90.61,0,0,0-17.87,30.8q-6.42,18.09-6.41,40.58,0,23.55,6.41,41.84t17.45,30.8a74.07,74.07,0,0,0,25.76,19,77.06,77.06,0,0,0,31.53,6.52,151,151,0,0,0,17.66-.95,73.05,73.05,0,0,0,14.83-3.26,68.59,68.59,0,0,0,13-6A85.87,85.87,0,0,0,528,247.27a25.54,25.54,0,0,1,5.47-3.47A14.34,14.34,0,0,1,539.52,242.44Z"/><path class="cls-3" d="M961.49,321.7H890V192.19H765.54V321.7H694.05V15.36h71.49V143.41H890v-128h71.48Z"/><path class="cls-4" d="M1398.39,168.43q0,33.23-11.45,61.81a146.1,146.1,0,0,1-82.42,82.84q-29.34,12-65.08,12t-65.17-12a146.18,146.18,0,0,1-82.74-82.84q-11.46-28.59-11.46-61.81t11.46-61.82A147.06,147.06,0,0,1,1123.91,57a149.8,149.8,0,0,1,50.36-33q29.43-12,65.17-12t65.08,12.09a150.13,150.13,0,0,1,50.14,33.11,148,148,0,0,1,32.28,49.62A164.29,164.29,0,0,1,1398.39,168.43Zm-72.74,0q0-22.71-5.89-40.9t-16.93-30.8a73,73,0,0,0-27-19.34q-16-6.73-36.38-6.73-20.6,0-36.69,6.73a72.88,72.88,0,0,0-27.12,19.34q-11,12.61-16.92,30.8t-5.89,40.9q0,22.92,5.89,41.1t16.92,30.8a71.76,71.76,0,0,0,27.12,19.24q16.1,6.63,36.69,6.63,20.4,0,36.38-6.63a71.83,71.83,0,0,0,27-19.24q11-12.62,16.93-30.8T1325.65,168.43Z"/></g></g></svg>