<svg xmlns="http://www.w3.org/2000/svg" viewBox="0 0 105.98 37.9"><defs><style>.cls-1{fill:#00f4b4;}.cls-2{fill:#fff;}.cls-3{fill:none;}</style></defs><title>Asset 1</title><g id="Layer_2" data-name="Layer 2"><g id="Layer_1-2" data-name="Layer 1"><path class="cls-1" d="M5,34.32a3.37,3.37,0,0,1-3.32,3.42H0V30.87H1.71A3.38,3.38,0,0,1,5,34.32Zm-1,0a2.46,2.46,0,0,0-2.32-2.53H1v5h.71A2.46,2.46,0,0,0,4,34.32Z"/><path class="cls-1" d="M18.89,37.74H17.82V30.85h1.07Z"/><path class="cls-1" d="M38.94,34.31a3.44,3.44,0,0,1-3.49,3.59,3.61,3.61,0,0,1,0-7.21,3.86,3.86,0,0,1,3,1.26l-.86.67a3,3,0,0,0-2.1-.85,2.55,2.55,0,0,0,0,5.09,2.31,2.31,0,0,0,2.29-1.71H36v-1h2.93Z"/><path class="cls-1" d="M53,37.74H52V30.85H53Z"/><path class="cls-1" d="M70.87,30.87v1H68.8v5.88H67.64V31.85h-2v-1Z"/><path class="cls-1" d="M87.51,36.63h-3c-.23.61-.43,1.1-.43,1.1H83l3-7,3,7H88Zm-.35-.9s-.18-.38-.24-.56c-.15-.41-.3-.75-.37-.94-.33-.84-.51-1.4-.51-1.4l-.55,1.4c-.08.21-.21.56-.37.94-.06.18-.23.56-.23.56s.14,0,1.15,0S87.16,35.73,87.16,35.73Z"/><path class="cls-1" d="M106,36.78v1h-4.21V30.85h1v5.93Z"/><path class="cls-2" d="M94.19.08h-6a1.8,1.8,0,0,0-1.79,1.8v0a1.8,1.8,0,0,0,1.8,1.8l6,0a1.78,1.78,0,0,0,1.52-.86h0A1.8,1.8,0,0,0,94.19.08Z"/><path class="cls-2" d="M25.08,7.7,21.78,11V22.48a3.29,3.29,0,0,0,3.3,3.29h0Zm0-4.66V1.3A1.21,1.21,0,0,0,23,.44L16.6,6.85h0L.49,23A1.64,1.64,0,0,0,0,24.12H0a1.65,1.65,0,0,0,2.81,1.17l19-19h0ZM0,1.3V18.78L3.3,15.49V6.32l4.58,4.59,2.33-2.33L2.08.44A1.21,1.21,0,0,0,0,1.3Z"/><path class="cls-2" d="M50,.08h0a.48.48,0,0,1,.47.48V16.73a9.05,9.05,0,1,1-18.1-.1V.56a.48.48,0,0,1,.47-.48h2.83A.26.26,0,0,1,36,.34v16a5.84,5.84,0,0,0,5.51,5.91c3,0,5.47-2.83,5.47-5.91V.34a.26.26,0,0,1,.26-.26H50Z"/><path class="cls-2" d="M68.85,0,58.92,23.17a1.88,1.88,0,0,0,1.72,2.62h0a1.76,1.76,0,0,0,1.63-1.1c.62-1.59,1.78-4.5,2.4-6.1a.39.39,0,0,1,0-.06l0-.05,0-.1.12-.28v0l0,0c.2-.47.51-1.2.67-1.62.58-1.41,1.05-2.67,1.34-3.46,1.22-3,2-5.12,2-5.12S69.57,9.91,70.8,13c.25.72.79,1.94,1.33,3.46.24.62.86,2,.9,2h0v0h0c.67,1.59,1.85,4.57,2.48,6.18a1.74,1.74,0,0,0,1.61,1.1h0a1.87,1.87,0,0,0,1.72-2.62Z"/><path class="cls-2" d="M97.2,22.86v0a1.91,1.91,0,0,0,1.64,2.89H104a1.9,1.9,0,0,0,1.91-1.91h0A1.91,1.91,0,0,0,104,22H98.84A1.93,1.93,0,0,0,97.2,22.86Z"/><path class="cls-2" d="M103,.08h0A1.94,1.94,0,0,0,101.3,1L99.71,3.64h0L98,6.44l-.67,1.1L88.05,22.83a1.94,1.94,0,0,0,1.66,2.94h.15a1.92,1.92,0,0,0,1.65-.93l1.76-2.92h0L104.61,3A1.94,1.94,0,0,0,103,.08Z"/><path class="cls-3" d="M73,18.48h0"/></g></g></svg>